<svg width="36" height="36" viewBox="0 0 36 36" fill="none" xmlns="http://www.w3.org/2000/svg">
<circle cx="18" cy="18" r="18" fill="#936CDD"/>
<path d="M11.0768 12.6851C11.0768 12.2188 11.2405 11.8342 11.5679 11.5312C11.8954 11.2282 12.3211 11.0767 12.845 11.0767C13.3595 11.0767 13.7758 11.2258 14.0939 11.5242C14.4214 11.8319 14.5851 12.2328 14.5851 12.727C14.5851 13.1746 14.4261 13.5475 14.108 13.8459C13.7805 14.1536 13.3502 14.3074 12.8169 14.3074H12.8029C12.2883 14.3074 11.872 14.1536 11.5539 13.8459C11.2358 13.5382 11.0768 13.1512 11.0768 12.6851ZM11.2592 24.9228V15.5802H14.3746V24.9228H11.2592ZM16.1007 24.9228H19.2161V19.706C19.2161 19.3797 19.2535 19.1279 19.3283 18.9508C19.4593 18.6338 19.6581 18.3657 19.9248 18.1466C20.1914 17.9275 20.5258 17.8179 20.9281 17.8179C21.976 17.8179 22.4999 18.5219 22.4999 19.9298V24.9228H25.6152V19.5662C25.6152 18.1862 25.2878 17.1396 24.6329 16.4263C23.978 15.713 23.1126 15.3564 22.0368 15.3564C20.8299 15.3564 19.8897 15.8739 19.2161 16.9088V16.9368H19.202L19.2161 16.9088V15.5802H16.1007C16.1194 15.8785 16.1288 16.8063 16.1288 18.3634C16.1288 19.9205 16.1194 22.107 16.1007 24.9228Z" fill="white"/>
</svg>
