<svg width="36" height="36" viewBox="0 0 36 36" fill="none" xmlns="http://www.w3.org/2000/svg">
<circle cx="18" cy="18" r="18" fill="#201830"/>
<path d="M27 12.7158C26.3306 12.9938 25.6174 13.1781 24.8737 13.2675C25.6388 12.8351 26.2226 12.1556 26.4971 11.3365C25.7839 11.7391 24.9964 12.0235 24.1571 12.1822C23.4799 11.4995 22.5146 11.0767 21.4616 11.0767C19.4186 11.0767 17.7739 12.6466 17.7739 14.5712C17.7739 14.8481 17.7986 15.1144 17.8594 15.3679C14.7915 15.2262 12.0769 13.8342 10.2533 11.7136C9.93487 12.2365 9.74813 12.8351 9.74813 13.4795C9.74813 14.6894 10.4062 15.762 11.3872 16.3829C10.7944 16.3723 10.2127 16.2093 9.72 15.9526C9.72 15.9633 9.72 15.9771 9.72 15.991C9.72 17.6887 10.9991 19.0989 12.6765 19.4238C12.3761 19.5015 12.0487 19.5388 11.709 19.5388C11.4727 19.5388 11.2342 19.526 11.0104 19.4791C11.4885 20.8627 12.8453 21.8799 14.4585 21.9129C13.203 22.8427 11.6089 23.4029 9.88313 23.4029C9.5805 23.4029 9.29025 23.3902 9 23.355C10.6346 24.353 12.5719 24.9228 14.661 24.9228C21.4515 24.9228 25.164 19.5974 25.164 14.9813C25.164 14.8268 25.1584 14.6777 25.1505 14.5297C25.8829 14.0376 26.4982 13.4231 27 12.7158Z" fill="white"/>
</svg>
